<?xml version="1.0" standalone="no"?>
<!DOCTYPE svg PUBLIC "-//W3C//DTD SVG 20010904//EN"
 "http://www.w3.org/TR/2001/REC-SVG-20010904/DTD/svg10.dtd">
<svg version="1.0" xmlns="http://www.w3.org/2000/svg"
 width="281.000000pt" height="281.000000pt" viewBox="0 0 281.000000 281.000000"
 preserveAspectRatio="xMidYMid meet">
<metadata>
Created by potrace 1.14, written by Peter Selinger 2001-2017
</metadata>
<g transform="translate(0.000000,281.000000) scale(0.100000,-0.100000)"
fill="#000000" stroke="none">
<path d="M0 2781 c0 -16 6 -32 13 -34 9 -4 9 -6 -1 -6 -20 -1 -17 -487 4 -495
9 -4 14 2 15 17 0 12 2 34 4 50 3 20 -1 27 -13 27 -13 0 -12 4 7 19 19 15 21
19 8 24 -9 3 -18 1 -21 -6 -2 -7 -4 8 -4 33 0 25 3 34 5 22 4 -22 6 -22 23 11
21 38 21 57 0 82 -12 15 -11 23 12 64 23 40 26 52 18 86 -5 22 -6 41 -2 43 23
9 33 23 39 55 l6 37 -57 0 c-55 0 -56 0 -56 -29z"/>
<path d="M537 2803 c-4 -3 -3 -11 2 -17 5 -7 1 -23 -11 -41 -10 -16 -18 -23
-17 -15 1 8 1 26 0 40 l-1 25 -15 -29 c-18 -35 -19 -39 -2 -30 6 4 4 -1 -5
-12 -10 -11 -22 -45 -27 -75 -7 -46 -9 -49 -11 -19 l-2 35 -10 -28 c-5 -15
-14 -24 -20 -21 -7 5 -9 -4 -6 -25 2 -17 2 -29 0 -26 -11 11 -33 -36 -27 -56
4 -12 3 -19 -1 -16 -11 6 -12 -48 -1 -59 4 -4 7 -12 7 -18 0 -6 -4 -5 -9 2 -6
10 -11 5 -21 -17 -6 -16 -10 -36 -7 -43 3 -7 6 -2 6 11 1 19 4 21 15 12 14
-12 13 -55 -4 -131 l-8 -35 -2 35 c-2 33 -3 33 -10 10 -7 -23 -8 -22 -10 10
-1 19 -4 29 -7 23 -2 -7 -13 -13 -24 -13 -16 0 -19 -7 -19 -52 0 -51 -13 -89
-25 -77 -10 11 -23 174 -14 183 14 16 11 36 -11 67 -13 18 -26 26 -36 22 -11
-4 -12 -9 -5 -16 6 -6 11 -26 11 -45 0 -18 4 -31 9 -28 17 11 20 -38 4 -57
-17 -18 -28 -81 -13 -72 4 3 10 -2 14 -10 6 -17 -3 -47 -13 -41 -3 2 -5 -17
-4 -42 2 -38 0 -42 -6 -22 -9 24 -9 23 -11 -10 l-3 -35 -10 37 c-9 33 -32 56
-44 45 -2 -3 -5 -25 -7 -51 -1 -25 -5 -49 -9 -52 -3 -3 -2 -17 4 -31 5 -13 9
-32 9 -41 0 -13 -4 -12 -19 7 -10 14 -16 33 -13 44 4 16 2 19 -11 14 -17 -6
-42 24 -30 37 3 3 1 6 -5 6 -6 0 -9 7 -6 15 4 11 0 15 -16 15 l-21 0 21 27
c11 14 17 29 13 32 -4 3 -8 12 -8 19 0 6 -3 12 -7 12 -5 0 -12 0 -18 0 -6 0
-10 -41 -10 -104 0 -90 2 -105 17 -111 17 -6 17 -7 1 -19 -17 -12 -18 -63 -18
-806 l0 -793 72 76 c40 42 102 109 138 148 141 156 223 229 256 229 16 0 29
-14 48 -50 27 -52 33 -80 16 -80 -5 0 -18 -8 -28 -18 -35 -32 -62 -52 -72 -52
-6 0 -10 -7 -10 -15 0 -8 -6 -15 -14 -15 -8 0 -18 -9 -21 -20 -3 -11 -12 -20
-18 -20 -6 0 -20 -9 -32 -20 -11 -11 -46 -41 -78 -66 -49 -38 -57 -50 -57 -78
0 -33 17 -55 55 -71 18 -8 17 -9 -7 -13 -16 -2 -28 -6 -29 -10 -1 -4 -2 -28
-4 -53 -3 -54 -27 -104 -66 -141 -17 -16 -29 -37 -29 -52 l0 -26 1278 2 1277
3 1 30 c1 17 4 46 7 65 11 60 16 220 7 225 -4 3 -11 47 -14 97 -7 91 -29 205
-46 237 -17 31 -50 110 -50 120 0 6 -17 18 -37 28 l-38 17 28 4 c29 4 129 -45
195 -94 29 -23 32 -30 32 -77 l1 -52 24 48 c24 45 25 58 25 207 l0 158 -47 30
c-27 17 -79 45 -118 64 -84 40 -80 37 -73 43 3 3 39 -10 80 -30 41 -19 79 -35
85 -35 6 0 16 -6 22 -14 6 -8 21 -16 31 -19 20 -5 20 5 20 874 l0 879 -226 0
c-177 0 -224 -3 -218 -12 6 -10 4 -10 -7 0 -23 21 -41 14 -37 -15 2 -19 10
-29 28 -34 21 -6 11 -14 -12 -10 -5 0 -8 -4 -8 -10 0 -6 9 -8 23 -4 14 4 18 3
9 -3 -14 -9 -8 -37 15 -63 8 -9 16 -29 19 -44 3 -16 9 -35 13 -44 5 -9 7 -41
5 -71 -1 -34 2 -58 9 -62 9 -6 9 -8 1 -8 -8 0 -8 -11 2 -37 7 -21 13 -48 14
-60 0 -12 5 -25 10 -28 15 -9 12 -65 -2 -65 -7 0 -21 15 -32 33 -57 98 -65
116 -56 122 10 6 8 55 -4 74 -4 6 -12 9 -17 5 -6 -3 -10 0 -8 7 3 28 -1 39
-17 39 -13 0 -14 -3 -5 -13 6 -8 8 -16 5 -19 -3 -4 2 -20 11 -37 14 -29 14
-31 -1 -31 -11 0 -14 -5 -9 -17 3 -10 8 -55 11 -101 2 -46 6 -88 10 -93 3 -5
-1 -23 -9 -39 -15 -30 -13 -64 6 -88 7 -9 7 -16 -1 -24 -8 -8 -13 -6 -18 8
-15 48 -16 49 -21 36 -9 -22 20 -72 39 -67 20 7 27 -4 33 -52 3 -21 27 -103
53 -183 35 -104 51 -169 56 -230 4 -47 14 -129 22 -182 8 -54 13 -101 13 -105
-4 -22 2 -33 14 -27 9 6 9 5 0 -7 -7 -9 -12 -29 -12 -45 0 -94 -6 -124 -23
-124 -13 0 -18 -8 -18 -29 0 -36 -37 -62 -82 -59 -24 2 -32 -1 -30 -11 4 -17
-15 -31 -42 -31 -11 0 -16 5 -13 14 4 10 -6 16 -33 20 -22 3 -51 17 -66 31
-15 14 -36 25 -46 25 -23 0 -46 21 -41 36 2 6 -10 17 -27 24 -17 7 -39 29 -52
51 -17 30 -28 39 -49 39 -24 0 -39 -15 -39 -41 0 -5 11 -14 25 -19 27 -10 85
-103 85 -137 0 -16 -8 -25 -25 -29 -14 -3 -25 -10 -25 -15 0 -5 -11 -9 -25 -9
-16 0 -36 -12 -54 -32 -26 -29 -36 -33 -85 -35 -30 0 -60 -4 -65 -8 -6 -3 -11
-1 -11 5 0 7 -7 10 -15 6 -13 -5 -20 5 -16 27 0 4 -6 7 -14 7 -8 0 -15 4 -15
8 0 5 -20 30 -45 57 -32 34 -44 53 -40 66 4 13 1 19 -8 19 -8 0 -18 11 -21 24
-3 13 -18 31 -32 41 -23 15 -34 16 -83 6 -30 -6 -59 -18 -64 -26 -4 -8 -15
-15 -22 -15 -8 0 -15 -9 -15 -19 0 -11 -4 -21 -8 -23 -4 -1 -21 -30 -36 -62
-16 -32 -36 -66 -45 -75 -9 -9 -16 -23 -16 -31 0 -8 -17 -23 -37 -32 -37 -18
-37 -18 -64 7 -24 23 -28 23 -39 8 -7 -9 -17 -13 -23 -9 -6 3 -13 -3 -17 -14
-4 -11 -10 -18 -15 -15 -5 3 -11 1 -15 -5 -10 -16 -22 -12 -28 9 -4 16 2 21
25 27 23 4 27 8 17 15 -8 5 -15 4 -17 -1 -5 -14 -21 -12 -38 4 -12 13 -11 15
6 21 15 5 19 12 14 29 -3 12 -6 29 -8 38 -1 9 -8 23 -15 32 -16 19 -16 20 29
38 34 14 35 15 13 27 -19 10 -22 9 -17 -4 4 -10 0 -15 -11 -15 -17 0 -17 1 2
48 3 8 0 10 -10 6 -9 -3 -25 -1 -36 5 -13 7 -22 8 -26 1 -10 -17 -45 -12 -39
5 4 8 -1 17 -9 21 -9 3 -13 12 -11 19 6 16 -12 29 -26 20 -8 -5 -8 -11 -1 -19
6 -7 8 -16 4 -19 -10 -11 -23 -8 -23 4 0 24 -41 48 -87 51 -7 1 -10 5 -7 10 3
4 -5 8 -17 8 -15 0 -19 3 -12 13 5 6 10 25 11 41 2 36 3 37 30 29 24 -6 30
-23 8 -23 -8 0 -16 -7 -20 -15 -7 -18 -7 -18 36 -1 30 13 42 13 84 2 27 -8 57
-17 67 -21 10 -4 17 -3 17 4 0 16 25 14 40 -3 6 -8 17 -13 24 -10 7 3 26 -1
42 -7 16 -7 33 -11 38 -10 4 1 14 -4 22 -10 8 -7 17 -9 20 -6 3 3 17 2 30 -3
19 -8 24 -6 24 6 0 8 4 13 10 9 10 -6 130 109 130 126 0 5 3 8 8 6 7 -5 28 13
28 23 0 3 14 20 32 38 18 18 32 28 32 23 0 -5 21 -8 46 -6 39 2 47 0 51 -16
13 -49 33 9 33 97 0 28 6 47 20 59 23 21 26 41 8 48 -10 4 -10 8 -2 14 7 4 13
17 15 28 3 11 13 21 23 23 11 3 16 0 12 -7 -4 -6 -2 -11 3 -11 6 0 11 5 11 10
0 17 22 11 40 -10 10 -12 15 -30 12 -45 -3 -19 0 -25 12 -25 10 0 24 -17 36
-44 21 -49 53 -74 74 -57 8 7 22 2 46 -19 19 -16 47 -32 62 -35 14 -4 32 -12
38 -20 6 -7 40 -17 76 -20 51 -6 69 -4 89 9 13 9 36 16 50 16 19 0 25 5 23 18
-2 9 -6 19 -10 22 -11 9 62 80 82 80 5 0 10 11 10 25 0 14 3 24 8 23 6 -2 47
21 72 40 2 1 -1 7 -8 11 -10 6 -9 16 3 45 13 31 14 47 4 99 -7 34 -16 67 -21
74 -5 6 -8 22 -7 35 4 46 -1 68 -17 68 -8 0 -12 -4 -9 -10 8 -13 3 -12 -68 4
-31 8 -54 10 -51 5 3 -6 -10 -4 -28 4 -57 24 -161 7 -174 -28 -7 -17 -74 -55
-99 -55 -8 0 -15 -5 -15 -10 0 -7 -20 -10 -50 -9 -27 2 -50 6 -50 10 0 4 -9 7
-20 6 -14 -1 -20 -9 -20 -27 0 -14 -7 -33 -14 -42 -15 -21 -56 -24 -56 -5 0 8
-4 7 -10 -3 -16 -25 -11 -33 15 -28 14 3 25 3 25 1 0 -10 -63 -63 -75 -63 -26
0 -16 18 18 30 24 10 27 14 15 17 -10 3 -18 11 -18 19 0 11 -6 13 -21 9 -19
-6 -21 -4 -16 15 4 17 3 20 -6 11 -17 -17 -34 -13 -41 12 -4 14 -9 18 -13 11
-5 -6 -18 -14 -31 -18 -12 -4 -20 -12 -17 -17 4 -5 1 -9 -4 -9 -6 0 -11 7 -11
15 0 18 -17 20 -23 3 -3 -10 -9 -10 -25 -1 -17 10 -25 9 -48 -9 -23 -19 -37
-21 -103 -18 -126 5 -152 5 -246 -3 -55 -4 -85 -4 -76 2 10 6 3 9 -22 9 -35 0
-58 -21 -34 -32 7 -3 -5 -4 -26 -2 -20 2 -40 0 -43 -5 -3 -5 -11 -9 -17 -8 -9
0 -9 2 1 6 6 2 12 18 12 34 0 46 43 115 53 86 2 -6 3 3 2 21 -1 18 -5 35 -9
39 -3 3 -6 16 -6 27 1 20 1 20 14 3 11 -14 15 -15 19 -4 3 8 0 20 -6 27 -9 10
-8 12 9 8 13 -3 21 0 21 7 0 7 -12 16 -27 19 -21 4 -29 13 -35 38 -4 18 -7 37
-6 42 1 5 -5 6 -14 3 -8 -4 -15 -2 -15 3 0 6 -7 10 -15 10 -9 0 -15 9 -15 23
0 12 -7 35 -15 51 -11 20 -12 33 -5 40 13 13 13 36 0 36 -5 0 -7 -7 -4 -15 4
-8 1 -15 -5 -15 -9 0 -24 20 -33 45 -1 6 -8 9 -15 9 -6 -1 -9 5 -6 12 3 8 9
14 14 14 5 0 9 5 9 11 0 5 -5 7 -11 3 -7 -4 -9 0 -5 12 3 11 1 26 -4 34 -8 13
-10 12 -10 -2 0 -25 -17 -22 -23 3 -4 14 -10 18 -19 14 -10 -6 -11 -5 0 6 6 7
12 18 12 23 0 7 -3 7 -8 0 -5 -8 -16 -5 -37 7 -22 14 -25 19 -12 19 10 0 16 4
13 8 -2 4 -1 14 5 22 7 12 9 9 9 -10 0 -17 3 -21 9 -12 7 12 5 83 -4 109 -2 7
0 15 4 18 12 7 21 45 10 45 -13 0 -42 -48 -45 -76 -1 -14 -5 -29 -9 -32 -6 -7
-10 -8 -37 -11 -7 -1 -19 -5 -27 -10 -12 -8 -13 -12 -1 -25 7 -9 10 -20 6 -23
-4 -4 -11 -2 -15 6 -7 10 -9 10 -14 -2 -4 -10 -13 -13 -28 -10 l-21 6 23 13
c13 7 20 14 14 14 -5 0 -3 4 5 10 19 12 12 18 -25 22 -29 3 -45 14 -45 31 0 5
5 5 11 1 8 -4 9 4 4 27 -4 25 -3 30 4 19 9 -12 11 -11 11 7 0 13 -5 21 -12 19
-7 -1 -10 -1 -5 1 4 3 4 10 1 15 -4 7 -2 8 4 4 7 -4 12 -1 12 8 0 9 -4 16 -10
16 -9 0 -7 56 3 66 2 3 8 -11 11 -32 9 -45 21 -36 18 14 -1 28 0 32 7 17 4
-11 6 -26 4 -32 -3 -7 0 -13 6 -13 6 0 11 7 11 16 0 8 4 12 10 9 6 -3 7 1 4 9
-3 9 -2 16 4 16 5 0 7 11 4 25 -2 14 0 31 5 38 20 25 23 47 7 47 -8 0 -13 -4
-9 -9 3 -5 1 -12 -5 -16 -5 -3 -10 1 -10 9 0 16 -12 21 -23 9z m-87 -238 c-9
-11 -9 -19 -2 -28 8 -9 8 -23 2 -43 l-10 -29 3 33 c2 17 0 32 -5 32 -10 0 -11
34 -1 43 13 14 25 6 13 -8z m-5 -136 c-4 -5 0 -9 7 -10 10 0 10 -2 0 -6 -6 -2
-9 -10 -5 -16 4 -8 1 -7 -9 1 -16 13 -13 56 3 46 5 -3 7 -10 4 -15z m319 -204
c3 -9 0 -15 -9 -15 -8 0 -15 7 -15 15 0 8 4 15 9 15 5 0 11 -7 15 -15z m1726
-204 l-35 -6 65 -64 c36 -36 59 -61 52 -57 -20 12 -64 -14 -59 -34 2 -9 -2
-25 -9 -34 -12 -17 -14 -15 -22 15 -5 19 -5 36 0 37 4 2 -1 11 -12 20 -23 19
-35 98 -18 119 6 7 25 12 42 12 l31 -2 -35 -6z m20 -326 c13 -14 19 -25 14
-25 -8 1 -50 50 -41 50 2 0 14 -11 27 -25z m48 -16 c-3 -8 -7 -3 -11 10 -4 17
-3 21 5 13 5 -5 8 -16 6 -23z m-2389 -5 c3 -3 -3 -12 -13 -20 -11 -8 -16 -14
-12 -14 4 0 4 -5 1 -10 -5 -8 -11 -7 -21 1 -17 14 -44 5 -44 -16 0 -8 -9 -15
-19 -15 -17 0 -18 4 -11 31 5 18 11 33 12 34 30 23 88 28 107 9z m2021 -64 c0
-5 -2 -10 -4 -10 -3 0 -8 5 -11 10 -3 6 -1 10 4 10 6 0 11 -4 11 -10z m-105
-15 c-16 -7 -30 -19 -30 -27 0 -7 -8 -13 -17 -13 -10 0 -18 3 -18 8 0 4 0 16
0 27 0 17 6 20 48 19 l47 -1 -30 -13z m215 -51 c0 -3 -4 -2 -10 1 -5 3 -10 1
-10 -5 0 -6 -4 -8 -10 -5 -5 3 -10 13 -10 21 0 12 4 12 20 4 11 -6 20 -13 20
-16z m252 -16 c-9 -9 -12 -7 -12 12 0 19 3 21 12 12 9 -9 9 -15 0 -24z m78 18
c0 -3 -4 -8 -10 -11 -5 -3 -10 -1 -10 4 0 6 5 11 10 11 6 0 10 -2 10 -4z
m-633 -21 c0 -8 -4 -12 -9 -9 -4 3 -8 9 -8 15 0 5 4 9 8 9 5 0 9 -7 9 -15z
m-97 -5 c0 -5 -8 -10 -17 -10 -15 0 -16 2 -3 10 19 12 20 12 20 0z m697 4 c-3
-3 -12 -4 -19 -1 -8 3 -5 6 6 6 11 1 17 -2 13 -5z m-653 -18 c-3 -9 -12 -12
-22 -9 -15 6 -9 11 25 22 1 1 0 -5 -3 -13z m706 4 c0 -5 -5 -10 -11 -10 -5 0
-7 5 -4 10 3 6 8 10 11 10 2 0 4 -4 4 -10z m-1373 -51 c-27 -16 -58 -22 -104
-23 -24 0 -43 -3 -43 -7 0 -3 -7 -6 -15 -6 -12 0 -11 4 4 18 12 11 39 19 72
22 111 7 106 7 86 -4z m1280 -61 c-3 -8 -6 -5 -6 6 -1 11 2 17 5 13 3 -3 4
-12 1 -19z m25 -35 c-3 -15 -13 -35 -22 -45 -15 -17 -18 -17 -30 -3 -9 11 -10
18 -1 28 6 8 7 18 3 23 -4 4 0 3 9 -4 14 -10 17 -9 22 8 8 30 25 24 19 -7z
m108 -24 c0 -26 -2 -28 -19 -19 -11 5 -32 10 -47 10 -23 0 -25 2 -13 16 16 20
50 33 67 27 6 -3 12 -18 12 -34z m-115 -139 c3 -5 -3 -10 -14 -10 -12 0 -21 5
-21 10 0 6 6 10 14 10 8 0 18 -4 21 -10z m208 -197 c3 -5 8 -23 12 -42 7 -32
6 -34 -9 -19 -9 9 -16 23 -16 31 0 22 -12 28 -29 14 -14 -11 -14 -10 -2 6 14
18 36 23 44 10z m-1280 -23 c-3 -11 0 -20 6 -20 6 0 11 5 11 10 0 20 28 10 34
-12 6 -24 -13 -52 -21 -31 -3 9 -11 8 -29 -3 -22 -15 -24 -15 -30 2 -4 11 -8
21 -9 24 -2 3 1 15 6 28 11 28 39 30 32 2z m618 -103 c34 -19 43 -29 41 -45
-2 -15 2 -22 13 -22 9 0 13 5 10 11 -4 6 2 5 14 -3 35 -22 34 -39 -2 -36 -17
1 -38 6 -44 11 -7 5 -13 6 -13 1 0 -5 -5 -2 -10 6 -5 8 -10 10 -10 4 0 -20 41
-64 53 -57 7 3 9 2 4 -2 -4 -5 3 -19 15 -32 l22 -23 -27 2 c-15 1 -27 5 -27 8
0 3 -10 11 -22 19 -21 13 -22 13 -10 -2 19 -22 -3 -31 -27 -11 -11 10 -18 21
-16 25 3 4 -2 12 -9 18 -10 8 -16 9 -21 1 -9 -15 -30 9 -39 44 -6 26 -5 28 9
16 8 -7 19 -10 23 -6 4 4 -2 14 -12 22 -13 9 -15 14 -6 14 7 0 11 2 8 5 -4 4
30 53 38 55 0 0 21 -11 45 -23z m-717 -128 c-3 -5 1 -22 9 -38 12 -25 12 -29
1 -24 -8 3 -14 1 -14 -4 0 -5 -7 -18 -15 -29 -14 -18 -14 -18 -10 6 3 14 9 26
15 28 5 2 10 11 10 19 0 12 -7 14 -32 9 -26 -4 -29 -3 -15 5 13 7 15 15 8 28
-15 28 8 45 31 25 9 -9 15 -21 12 -25z m879 9 c34 -18 43 -31 51 -70 l7 -37
-31 10 c-16 6 -30 14 -30 19 0 4 -14 13 -30 20 -32 13 -57 39 -27 27 10 -3 17
-2 17 3 0 6 -4 10 -9 10 -5 0 -11 7 -15 15 -7 19 35 21 67 3z m-259 -26 c2 -4
1 -14 -3 -21 -6 -9 -10 -7 -14 8 -5 20 7 29 17 13z m-668 -54 c4 -6 3 -8 -3
-5 -6 4 -14 0 -17 -9 -4 -9 -9 -14 -13 -11 -3 4 0 13 7 22 15 18 17 18 26 3z
m122 -42 c2 -16 0 -32 -5 -37 -4 -4 -8 2 -9 14 0 12 -4 30 -9 41 -6 14 -5 18
6 14 8 -2 15 -17 17 -32z m867 -5 c-3 -5 -1 -12 5 -16 6 -4 7 -11 4 -17 -4 -6
-10 -5 -15 3 -12 19 -11 39 2 39 5 0 8 -4 4 -9z m-1012 -31 c-3 -11 -7 -20 -9
-20 -2 0 -4 9 -4 20 0 11 4 20 9 20 5 0 7 -9 4 -20z m1037 -24 c0 -3 -4 -8
-10 -11 -5 -3 -10 -1 -10 4 0 6 5 11 10 11 6 0 10 -2 10 -4z m-1140 -129 c0
-7 -6 -22 -14 -33 -14 -18 -15 -18 -13 4 1 12 5 22 10 22 4 0 5 5 2 10 -3 6
-1 10 4 10 6 0 11 -6 11 -13z m930 -286 c0 -4 -7 -8 -15 -8 -8 0 -15 5 -15 11
0 6 -5 4 -10 -4 -5 -8 -10 -10 -10 -4 0 6 3 13 6 16 7 8 44 -2 44 -11z"/>
<path d="M2280 726 c0 -2 7 -7 16 -10 8 -3 12 -2 9 4 -6 10 -25 14 -25 6z"/>
<path d="M2296 685 c4 -8 11 -15 16 -15 6 0 5 6 -2 15 -7 8 -14 15 -16 15 -2
0 -1 -7 2 -15z"/>
<path d="M833 2798 c-14 -24 -11 -38 8 -38 10 0 22 0 27 0 4 0 7 4 7 10 0 5 9
16 20 24 19 15 18 15 -17 16 -20 0 -40 -6 -45 -12z"/>
<path d="M986 2802 c-6 -10 40 -10 50 1 4 4 -4 7 -19 7 -14 0 -28 -4 -31 -8z"/>
<path d="M1132 2795 c-11 -13 -9 -15 10 -16 22 -1 20 -2 -21 -15 -11 -3 -11
-7 -1 -19 9 -10 9 -15 1 -15 -6 0 -11 -4 -11 -9 0 -5 11 -4 24 2 16 8 21 14
13 19 -9 6 -9 8 0 8 15 0 63 40 63 52 0 4 -7 8 -15 8 -8 0 -15 -4 -15 -10 0
-5 -5 -10 -11 -10 -5 0 -7 5 -4 10 10 16 -18 11 -33 -5z"/>
<path d="M1310 2802 c0 -8 48 -62 55 -62 3 0 5 16 5 35 0 32 -2 35 -30 35 -16
0 -30 -3 -30 -8z"/>
<path d="M1390 2786 c0 -14 -4 -36 -10 -50 -7 -21 -6 -26 5 -26 8 0 18 0 23 0
4 0 7 3 7 8 1 4 6 17 13 30 17 29 6 62 -19 62 -13 0 -19 -7 -19 -24z"/>
<path d="M1476 2794 c-11 -28 -7 -74 7 -74 15 -1 -53 -60 -69 -60 -22 0 -24
-29 -2 -36 20 -6 19 -7 -9 -19 -16 -7 -33 -22 -35 -33 -5 -18 -2 -20 25 -17
26 3 64 25 43 25 -4 0 2 14 14 30 12 17 19 30 15 30 -3 0 15 21 40 47 25 26
45 52 45 58 0 5 -5 3 -10 -5 -5 -8 -10 -11 -10 -6 0 5 -7 3 -15 -4 -11 -9 -15
-9 -15 -1 0 7 -5 9 -11 5 -12 -7 -9 23 6 59 4 9 3 17 -3 17 -5 0 -13 -7 -16
-16z"/>
<path d="M1505 2781 c-8 -17 -12 -32 -7 -35 11 -7 52 30 52 48 0 27 -28 18
-45 -13z"/>
<path d="M1597 2804 c21 -9 -16 -90 -65 -145 -25 -29 -47 -58 -48 -67 -2 -8
-9 -19 -16 -23 -8 -6 -9 -9 -2 -9 7 0 26 13 43 29 16 15 33 26 37 22 4 -3 4 0
0 7 -5 9 0 19 14 29 12 8 19 20 17 27 -6 16 20 40 26 23 3 -7 6 -3 6 7 1 11 4
16 8 13 8 -8 11 -57 3 -52 -10 6 -5 -60 5 -68 6 -4 -2 -17 -20 -33 -21 -17
-24 -23 -10 -18 27 9 44 23 56 45 7 15 6 17 -6 13 -11 -5 -13 -2 -9 10 3 9 10
16 14 16 4 0 10 8 13 18 2 9 8 26 12 37 6 17 5 18 -5 5 -10 -13 -11 -12 -5 5
4 11 7 26 7 33 -1 6 -2 28 -3 47 -1 28 -4 33 -14 25 -7 -6 -15 -24 -19 -40 -3
-17 -10 -30 -16 -30 -7 0 -7 7 0 21 7 11 9 23 6 26 -3 3 2 12 12 19 15 12 13
13 -18 13 -19 0 -30 -3 -23 -5z"/>
<path d="M1738 2778 c-4 -26 -3 -28 7 -15 16 22 35 22 35 1 0 -22 26 -1 33 26
4 17 0 20 -33 20 -35 0 -38 -3 -42 -32z"/>
<path d="M1850 2790 c0 -11 5 -20 10 -20 6 0 10 9 10 20 0 11 -4 20 -10 20 -5
0 -10 -9 -10 -20z"/>
<path d="M1981 2798 c3 -38 16 -61 37 -64 17 -3 22 1 23 19 l0 22 9 -21 c15
-38 29 -37 24 2 -2 20 -7 41 -10 45 -8 14 -84 11 -83 -3z"/>
<path d="M2112 2730 c7 -10 14 -18 15 -16 6 6 -9 36 -18 36 -5 0 -4 -9 3 -20z"/>
<path d="M1166 2713 c-6 -14 -5 -15 5 -6 7 7 10 15 7 18 -3 3 -9 -2 -12 -12z"/>
<path d="M2035 2689 c5 -23 4 -30 -5 -24 -9 5 -10 1 -5 -16 7 -23 26 -42 33
-34 8 8 -10 105 -20 105 -6 0 -7 -13 -3 -31z"/>
<path d="M2095 2661 c-3 -5 -1 -12 5 -16 5 -3 10 1 10 9 0 18 -6 21 -15 7z"/>
<path d="M2076 2611 c-4 -5 -2 -12 3 -15 5 -4 12 -2 15 3 4 5 2 12 -3 15 -5 4
-12 2 -15 -3z"/>
<path d="M45 2551 c-3 -5 -1 -12 5 -16 5 -3 10 1 10 9 0 18 -6 21 -15 7z"/>
<path d="M730 2540 c-6 -11 -8 -20 -6 -20 3 0 10 9 16 20 6 11 8 20 6 20 -3 0
-10 -9 -16 -20z"/>
<path d="M517 2520 c-6 -23 3 -32 22 -20 15 8 8 40 -8 40 -5 0 -11 -9 -14 -20z"/>
<path d="M335 2470 c-4 -28 -5 -54 -2 -56 3 -3 8 18 12 46 4 28 5 54 2 56 -3
3 -8 -18 -12 -46z"/>
<path d="M2274 2491 c3 -4 10 -21 16 -36 6 -15 13 -26 15 -23 8 8 -16 68 -27
68 -5 0 -7 -4 -4 -9z"/>
<path d="M243 2455 c0 -22 2 -30 4 -17 2 12 2 30 0 40 -3 9 -5 -1 -4 -23z"/>
<path d="M271 2423 c0 -25 1 -26 9 -8 12 27 12 35 0 35 -5 0 -10 -12 -9 -27z"/>
<path d="M302 2380 c0 -19 2 -27 5 -17 2 9 2 25 0 35 -3 9 -5 1 -5 -18z"/>
<path d="M2392 2343 c2 -9 9 -18 16 -21 18 -6 15 25 -4 32 -11 4 -14 1 -12
-11z"/>
<path d="M187 2313 c-10 -9 -9 -51 2 -57 11 -7 21 39 11 54 -3 5 -9 7 -13 3z"/>
<path d="M2410 2300 c0 -15 21 -23 32 -12 6 6 2 11 -11 15 -12 3 -21 1 -21 -3z"/>
<path d="M765 2290 c-4 -7 -1 -19 8 -27 19 -19 29 -3 12 20 -9 13 -15 15 -20
7z"/>
<path d="M122 2225 c0 -16 2 -22 5 -12 2 9 2 23 0 30 -3 6 -5 -1 -5 -18z"/>
<path d="M0 2224 c0 -8 5 -12 10 -9 6 4 8 11 5 16 -9 14 -15 11 -15 -7z"/>
<path d="M1040 2089 c0 -5 5 -7 10 -4 6 3 10 8 10 11 0 2 -4 4 -10 4 -5 0 -10
-5 -10 -11z"/>
<path d="M81 2064 c0 -11 3 -14 6 -6 3 7 2 16 -1 19 -3 4 -6 -2 -5 -13z"/>
<path d="M2326 2012 c-3 -6 -1 -14 5 -17 15 -10 25 3 12 16 -7 7 -13 7 -17 1z"/>
<path d="M950 1864 c0 -8 5 -12 10 -9 6 3 10 10 10 16 0 5 -4 9 -10 9 -5 0
-10 -7 -10 -16z"/>
<path d="M1161 1844 c0 -11 3 -14 6 -6 3 7 2 16 -1 19 -3 4 -6 -2 -5 -13z"/>
<path d="M2406 1315 c4 -8 10 -15 15 -15 5 0 9 7 9 15 0 8 -7 15 -15 15 -9 0
-12 -6 -9 -15z"/>
<path d="M2330 1281 c0 -5 7 -12 16 -15 24 -9 28 -7 14 9 -14 17 -30 20 -30 6z"/>
<path d="M2380 1270 c0 -5 5 -10 10 -10 6 0 10 5 10 10 0 6 -4 10 -10 10 -5 0
-10 -4 -10 -10z"/>
<path d="M1228 863 c7 -3 16 -2 19 1 4 3 -2 6 -13 5 -11 0 -14 -3 -6 -6z"/>
<path d="M94 131 c3 -13 1 -33 -5 -43 -12 -23 6 -21 34 4 18 16 15 44 -3 33
-5 -3 -14 3 -20 12 -10 16 -11 15 -6 -6z"/>
</g>
</svg>
